<mxfile>
    <diagram id="W66MCKCPfeMFEBZK7xAL" name="Page-1">
        <mxGraphModel dx="769" dy="575" grid="1" gridSize="10" guides="1" tooltips="1" connect="1" arrows="1" fold="1" page="1" pageScale="1" pageWidth="827" pageHeight="1169" math="0" shadow="0">
            <root>
                <mxCell id="0"/>
                <mxCell id="1" parent="0"/>
                <mxCell id="soeziekp5oH6GHRPuZ2Z-10" value="" style="rounded=0;whiteSpace=wrap;html=1;" parent="1" vertex="1">
                    <mxGeometry x="280" y="189" width="610" height="411" as="geometry"/>
                </mxCell>
                <mxCell id="soeziekp5oH6GHRPuZ2Z-3" value="otvaranje()" style="edgeStyle=orthogonalEdgeStyle;rounded=0;orthogonalLoop=1;jettySize=auto;html=1;" parent="1" source="oA69pTfiYyQ1RtSddcOU-2" target="soeziekp5oH6GHRPuZ2Z-1" edge="1">
                    <mxGeometry relative="1" as="geometry">
                        <Array as="points">
                            <mxPoint x="360" y="180"/>
                            <mxPoint x="360" y="180"/>
                        </Array>
                    </mxGeometry>
                </mxCell>
                <mxCell id="soeziekp5oH6GHRPuZ2Z-13" value="troskovnik()" style="edgeStyle=orthogonalEdgeStyle;rounded=0;orthogonalLoop=1;jettySize=auto;html=1;" parent="1" edge="1">
                    <mxGeometry x="-0.06" y="10" relative="1" as="geometry">
                        <Array as="points">
                            <mxPoint x="400" y="264"/>
                            <mxPoint x="400" y="264"/>
                        </Array>
                        <mxPoint as="offset"/>
                        <mxPoint x="329.5" y="264" as="sourcePoint"/>
                        <mxPoint x="482" y="264" as="targetPoint"/>
                    </mxGeometry>
                </mxCell>
                <mxCell id="soeziekp5oH6GHRPuZ2Z-18" value="pregledUnosa()" style="edgeStyle=orthogonalEdgeStyle;rounded=0;orthogonalLoop=1;jettySize=auto;html=1;" parent="1" source="oA69pTfiYyQ1RtSddcOU-2" target="soeziekp5oH6GHRPuZ2Z-1" edge="1">
                    <mxGeometry x="0.0557" y="10" relative="1" as="geometry">
                        <Array as="points">
                            <mxPoint x="400" y="320"/>
                            <mxPoint x="400" y="320"/>
                        </Array>
                        <mxPoint x="1" as="offset"/>
                    </mxGeometry>
                </mxCell>
                <mxCell id="oA69pTfiYyQ1RtSddcOU-2" value="Akter1" style="shape=umlLifeline;participant=umlActor;perimeter=lifelinePerimeter;whiteSpace=wrap;html=1;container=1;collapsible=0;recursiveResize=0;verticalAlign=top;spacingTop=36;outlineConnect=0;size=40;" parent="1" vertex="1">
                    <mxGeometry x="320" y="110" width="20" height="460" as="geometry"/>
                </mxCell>
                <mxCell id="soeziekp5oH6GHRPuZ2Z-5" value="login()" style="edgeStyle=orthogonalEdgeStyle;rounded=0;orthogonalLoop=1;jettySize=auto;html=1;" parent="1" source="soeziekp5oH6GHRPuZ2Z-1" target="soeziekp5oH6GHRPuZ2Z-2" edge="1">
                    <mxGeometry x="0.0056" y="10" relative="1" as="geometry">
                        <Array as="points">
                            <mxPoint x="560" y="180"/>
                            <mxPoint x="560" y="180"/>
                        </Array>
                        <mxPoint as="offset"/>
                    </mxGeometry>
                </mxCell>
                <mxCell id="soeziekp5oH6GHRPuZ2Z-19" value="uzimanjePodataka()" style="edgeStyle=orthogonalEdgeStyle;rounded=0;orthogonalLoop=1;jettySize=auto;html=1;" parent="1" source="soeziekp5oH6GHRPuZ2Z-1" target="soeziekp5oH6GHRPuZ2Z-4" edge="1">
                    <mxGeometry x="-0.3958" y="10" relative="1" as="geometry">
                        <Array as="points">
                            <mxPoint x="660" y="330"/>
                            <mxPoint x="660" y="330"/>
                        </Array>
                        <mxPoint as="offset"/>
                    </mxGeometry>
                </mxCell>
                <mxCell id="soeziekp5oH6GHRPuZ2Z-1" value="Web aplikacija" style="shape=umlLifeline;perimeter=lifelinePerimeter;whiteSpace=wrap;html=1;container=1;collapsible=0;recursiveResize=0;outlineConnect=0;" parent="1" vertex="1">
                    <mxGeometry x="430" y="117" width="105" height="453" as="geometry"/>
                </mxCell>
                <mxCell id="soeziekp5oH6GHRPuZ2Z-7" value="loginSuccessful()" style="edgeStyle=orthogonalEdgeStyle;rounded=0;orthogonalLoop=1;jettySize=auto;html=1;" parent="1" source="soeziekp5oH6GHRPuZ2Z-2" target="soeziekp5oH6GHRPuZ2Z-4" edge="1">
                    <mxGeometry x="0.0056" y="10" relative="1" as="geometry">
                        <Array as="points">
                            <mxPoint x="750" y="210"/>
                            <mxPoint x="750" y="210"/>
                        </Array>
                        <mxPoint as="offset"/>
                    </mxGeometry>
                </mxCell>
                <mxCell id="soeziekp5oH6GHRPuZ2Z-2" value="Autentifikacija" style="shape=umlLifeline;perimeter=lifelinePerimeter;whiteSpace=wrap;html=1;container=1;collapsible=0;recursiveResize=0;outlineConnect=0;" parent="1" vertex="1">
                    <mxGeometry x="610" y="117" width="100" height="453" as="geometry"/>
                </mxCell>
                <mxCell id="soeziekp5oH6GHRPuZ2Z-12" value="prikazFunkcionalnosti()" style="edgeStyle=orthogonalEdgeStyle;rounded=0;orthogonalLoop=1;jettySize=auto;html=1;" parent="1" source="soeziekp5oH6GHRPuZ2Z-4" target="soeziekp5oH6GHRPuZ2Z-1" edge="1">
                    <mxGeometry x="-0.0028" y="-10" relative="1" as="geometry">
                        <Array as="points">
                            <mxPoint x="660" y="230"/>
                            <mxPoint x="660" y="230"/>
                        </Array>
                        <mxPoint as="offset"/>
                    </mxGeometry>
                </mxCell>
                <mxCell id="soeziekp5oH6GHRPuZ2Z-20" value="prikazPodataka()" style="edgeStyle=orthogonalEdgeStyle;rounded=0;orthogonalLoop=1;jettySize=auto;html=1;" parent="1" source="soeziekp5oH6GHRPuZ2Z-4" target="soeziekp5oH6GHRPuZ2Z-1" edge="1">
                    <mxGeometry x="0.4517" y="-10" relative="1" as="geometry">
                        <Array as="points">
                            <mxPoint x="660" y="350"/>
                            <mxPoint x="660" y="350"/>
                        </Array>
                        <mxPoint as="offset"/>
                    </mxGeometry>
                </mxCell>
                <mxCell id="soeziekp5oH6GHRPuZ2Z-4" value="Baza podataka" style="shape=umlLifeline;perimeter=lifelinePerimeter;whiteSpace=wrap;html=1;container=1;collapsible=0;recursiveResize=0;outlineConnect=0;" parent="1" vertex="1">
                    <mxGeometry x="790" y="117" width="100" height="453" as="geometry"/>
                </mxCell>
                <mxCell id="soeziekp5oH6GHRPuZ2Z-24" value="" style="endArrow=none;dashed=1;html=1;entryX=0;entryY=0.5;entryDx=0;entryDy=0;exitX=1;exitY=0.684;exitDx=0;exitDy=0;exitPerimeter=0;" parent="1" edge="1">
                    <mxGeometry width="50" height="50" relative="1" as="geometry">
                        <mxPoint x="890" y="510.024" as="sourcePoint"/>
                        <mxPoint x="280" y="510" as="targetPoint"/>
                    </mxGeometry>
                </mxCell>
                <mxCell id="soeziekp5oH6GHRPuZ2Z-25" value="if true" style="text;html=1;align=center;verticalAlign=middle;resizable=0;points=[];autosize=1;strokeColor=none;" parent="1" vertex="1">
                    <mxGeometry x="280" y="200" width="50" height="20" as="geometry"/>
                </mxCell>
                <mxCell id="M5qFDHSjGWPHHJoiY7jc-7" value="unos()" style="edgeStyle=orthogonalEdgeStyle;rounded=0;orthogonalLoop=1;jettySize=auto;html=1;" parent="1" edge="1">
                    <mxGeometry x="-0.06" y="10" relative="1" as="geometry">
                        <Array as="points">
                            <mxPoint x="400.5" y="370"/>
                            <mxPoint x="400.5" y="370"/>
                        </Array>
                        <mxPoint as="offset"/>
                        <mxPoint x="330" y="370" as="sourcePoint"/>
                        <mxPoint x="482.5" y="370" as="targetPoint"/>
                    </mxGeometry>
                </mxCell>
                <mxCell id="M5qFDHSjGWPHHJoiY7jc-8" value="addJaja()&lt;br&gt;addHrana()" style="edgeStyle=orthogonalEdgeStyle;html=1;align=left;spacingLeft=2;endArrow=block;rounded=0;entryX=1;entryY=0;" parent="1" edge="1">
                    <mxGeometry x="0.7483" y="20" relative="1" as="geometry">
                        <mxPoint x="482.5" y="370" as="sourcePoint"/>
                        <Array as="points">
                            <mxPoint x="560.5" y="370"/>
                            <mxPoint x="560.5" y="380"/>
                        </Array>
                        <mxPoint x="1" as="offset"/>
                        <mxPoint x="501.5" y="380" as="targetPoint"/>
                    </mxGeometry>
                </mxCell>
                <mxCell id="M5qFDHSjGWPHHJoiY7jc-9" value="unos()" style="edgeStyle=orthogonalEdgeStyle;rounded=0;orthogonalLoop=1;jettySize=auto;html=1;" parent="1" edge="1">
                    <mxGeometry relative="1" as="geometry">
                        <mxPoint x="501.5" y="415" as="sourcePoint"/>
                        <mxPoint x="840" y="415" as="targetPoint"/>
                        <Array as="points">
                            <mxPoint x="670.5" y="415"/>
                            <mxPoint x="670.5" y="415"/>
                        </Array>
                    </mxGeometry>
                </mxCell>
                <mxCell id="M5qFDHSjGWPHHJoiY7jc-13" value="" style="html=1;points=[];perimeter=orthogonalPerimeter;" parent="1" vertex="1">
                    <mxGeometry x="491" y="380" width="10" height="40" as="geometry"/>
                </mxCell>
                <mxCell id="M5qFDHSjGWPHHJoiY7jc-15" value="else" style="text;html=1;align=center;verticalAlign=middle;resizable=0;points=[];autosize=1;strokeColor=none;" parent="1" vertex="1">
                    <mxGeometry x="285" y="517" width="40" height="20" as="geometry"/>
                </mxCell>
                <mxCell id="M5qFDHSjGWPHHJoiY7jc-16" value="povratnaInfo()" style="edgeStyle=orthogonalEdgeStyle;rounded=0;orthogonalLoop=1;jettySize=auto;html=1;" parent="1" edge="1">
                    <mxGeometry x="-0.0557" y="-10" relative="1" as="geometry">
                        <Array as="points">
                            <mxPoint x="410.88" y="539"/>
                            <mxPoint x="410.88" y="539"/>
                        </Array>
                        <mxPoint as="offset"/>
                        <mxPoint x="482.88" y="539" as="sourcePoint"/>
                        <mxPoint x="330.38" y="539" as="targetPoint"/>
                    </mxGeometry>
                </mxCell>
                <mxCell id="M5qFDHSjGWPHHJoiY7jc-17" value="loginUnsuccessful()" style="edgeStyle=orthogonalEdgeStyle;rounded=0;orthogonalLoop=1;jettySize=auto;html=1;" parent="1" edge="1">
                    <mxGeometry x="0.4517" y="-10" relative="1" as="geometry">
                        <mxPoint x="839.63" y="534" as="sourcePoint"/>
                        <mxPoint x="482.13" y="534" as="targetPoint"/>
                        <Array as="points">
                            <mxPoint x="660.13" y="534"/>
                            <mxPoint x="660.13" y="534"/>
                        </Array>
                        <mxPoint as="offset"/>
                    </mxGeometry>
                </mxCell>
                <mxCell id="3" value="uzimanjePodataka()" style="edgeStyle=orthogonalEdgeStyle;rounded=0;orthogonalLoop=1;jettySize=auto;html=1;" edge="1" parent="1">
                    <mxGeometry x="-0.3958" y="10" relative="1" as="geometry">
                        <Array as="points">
                            <mxPoint x="659.25" y="280"/>
                            <mxPoint x="659.25" y="280"/>
                        </Array>
                        <mxPoint as="offset"/>
                        <mxPoint x="481.25" y="280" as="sourcePoint"/>
                        <mxPoint x="838.75" y="280" as="targetPoint"/>
                    </mxGeometry>
                </mxCell>
                <mxCell id="4" value="prikazPodataka()" style="edgeStyle=orthogonalEdgeStyle;rounded=0;orthogonalLoop=1;jettySize=auto;html=1;" edge="1" parent="1">
                    <mxGeometry x="0.4517" y="-10" relative="1" as="geometry">
                        <Array as="points">
                            <mxPoint x="659.25" y="300"/>
                            <mxPoint x="659.25" y="300"/>
                        </Array>
                        <mxPoint as="offset"/>
                        <mxPoint x="838.75" y="300" as="sourcePoint"/>
                        <mxPoint x="481.25" y="300" as="targetPoint"/>
                    </mxGeometry>
                </mxCell>
                <mxCell id="5" value="pregled()" style="edgeStyle=orthogonalEdgeStyle;rounded=0;orthogonalLoop=1;jettySize=auto;html=1;" edge="1" parent="1">
                    <mxGeometry x="-0.06" y="10" relative="1" as="geometry">
                        <Array as="points">
                            <mxPoint x="400.88" y="440"/>
                            <mxPoint x="400.88" y="440"/>
                        </Array>
                        <mxPoint as="offset"/>
                        <mxPoint x="330.38" y="440" as="sourcePoint"/>
                        <mxPoint x="482.88" y="440" as="targetPoint"/>
                    </mxGeometry>
                </mxCell>
                <mxCell id="6" value="uzimanjePodataka()" style="edgeStyle=orthogonalEdgeStyle;rounded=0;orthogonalLoop=1;jettySize=auto;html=1;" edge="1" parent="1">
                    <mxGeometry x="-0.3958" y="10" relative="1" as="geometry">
                        <Array as="points">
                            <mxPoint x="660.13" y="456"/>
                            <mxPoint x="660.13" y="456"/>
                        </Array>
                        <mxPoint as="offset"/>
                        <mxPoint x="482.13" y="456" as="sourcePoint"/>
                        <mxPoint x="839.63" y="456" as="targetPoint"/>
                    </mxGeometry>
                </mxCell>
                <mxCell id="7" value="prikazPodataka()" style="edgeStyle=orthogonalEdgeStyle;rounded=0;orthogonalLoop=1;jettySize=auto;html=1;" edge="1" parent="1">
                    <mxGeometry x="0.4517" y="-10" relative="1" as="geometry">
                        <Array as="points">
                            <mxPoint x="660.13" y="476"/>
                            <mxPoint x="660.13" y="476"/>
                        </Array>
                        <mxPoint as="offset"/>
                        <mxPoint x="839.63" y="476" as="sourcePoint"/>
                        <mxPoint x="482.13" y="476" as="targetPoint"/>
                    </mxGeometry>
                </mxCell>
            </root>
        </mxGraphModel>
    </diagram>
</mxfile>